<?xml version="1.0" encoding="UTF-8"?>
<svg version="1.1" xmlns="http://www.w3.org/2000/svg" width="500" height="500">
<path d="M0 0 C165 0 330 0 500 0 C500 165 500 330 500 500 C335 500 170 500 0 500 C0 335 0 170 0 0 Z " fill="#FEFEFE" transform="translate(0,0)"/>
<path d="M0 0 C2.074674 0.91598297 4.15027767 1.82986175 6.2265625 2.7421875 C7.99435059 3.53061035 7.99435059 3.53061035 9.79785156 4.33496094 C17.3208759 7.66260606 24.9371206 10.77693939 32.53057861 13.93939209 C37.22593789 15.89650545 41.91745571 17.86278272 46.609375 19.828125 C48.39646039 20.57622916 50.18356903 21.32427781 51.97070312 22.07226562 C54.30821291 23.05063765 56.64572105 24.0290135 58.9831543 25.00756836 C71.24406927 30.14036788 83.50889711 35.24990174 95.875 40.125 C95.875 41.115 95.875 42.105 95.875 43.125 C94.94679443 43.51131592 94.01858887 43.89763184 93.06225586 44.2956543 C76.20856835 51.31082621 59.35776784 58.33254423 42.52648926 65.40133667 C34.69315192 68.6908802 26.85528746 71.9692933 19.01171875 75.234375 C18.18169342 75.57992432 17.35166809 75.92547363 16.49649048 76.28149414 C12.42261294 77.97721527 8.34829487 79.6718692 4.2734375 81.36523438 C2.80077557 81.97785093 1.32811904 82.59048047 -0.14453125 83.203125 C-0.82316727 83.48476501 -1.50180328 83.76640503 -2.20100403 84.05657959 C-5.69904651 85.51090352 -5.69904651 85.51090352 -9.125 87.125 C-23.30190719 89.19922942 -33.98887128 84.49744646 -46.70263672 78.66943359 C-52.20242542 76.18750583 -57.775722 73.88389224 -63.34692383 71.56832886 C-65.98036605 70.47194715 -68.61012669 69.36687533 -71.24008179 68.26216125 C-79.56335953 64.76725581 -87.90483123 61.31723008 -96.25 57.875 C-107.91974748 53.06049694 -119.53965608 48.13898491 -131.125 43.125 C-131.125 42.135 -131.125 41.145 -131.125 40.125 C-119.91996142 35.44668935 -108.71036208 30.77953254 -97.4921875 26.1328125 C-96.64821915 25.78321976 -95.80425079 25.43362701 -94.93470764 25.07344055 C-94.07816086 24.7186412 -93.22161407 24.36384186 -92.33911133 23.99829102 C-77.71544351 17.94079982 -63.09605088 11.87379093 -48.5 5.75 C-47.85892303 5.48109955 -47.21784607 5.2121991 -46.55734253 4.93515015 C-44.75418307 4.17857626 -42.95130417 3.42133381 -41.1484375 2.6640625 C-40.08592773 2.21836914 -39.02341797 1.77267578 -37.92871094 1.31347656 C-35.64150798 0.34394469 -33.37052165 -0.65306783 -31.1015625 -1.6640625 C-20.69738218 -5.89673429 -9.94155854 -4.65757227 0 0 Z " fill="#010101" transform="translate(254.125,92.875)"/>
<path d="M0 0 C10.12288856 3.37429619 10.12288856 3.37429619 13.97802734 5.02124023 C14.84277679 5.38849716 15.70752625 5.75575409 16.59848022 6.13414001 C17.50184113 6.52170975 18.40520203 6.90927948 19.3359375 7.30859375 C20.77593613 7.92058372 20.77593613 7.92058372 22.24502563 8.54493713 C25.28976383 9.83916809 28.33257227 11.13784794 31.375 12.4375 C34.41037612 13.73336467 37.44620497 15.02810999 40.48355103 16.3193512 C42.36474553 17.11912721 44.24485496 17.92146257 46.12362671 18.72691345 C61.79215921 25.38983947 73.61611019 28.98460848 89.984375 22.5625 C93.59356907 21.08804359 97.17210264 19.54853661 100.75 18 C102.54324959 17.24626362 104.33751888 16.49494851 106.1328125 15.74609375 C112.34878934 13.14330722 118.54224874 10.48891282 124.73168945 7.82373047 C127.36614446 6.69059599 130.00323623 5.56378522 132.640625 4.4375 C133.43966248 4.09074219 134.23869995 3.74398437 135.06195068 3.38671875 C140.66086641 1 140.66086641 1 144 1 C144 16.18 144 31.36 144 47 C138.06 47.495 138.06 47.495 132 48 C112.67283267 53.08388532 97.11001907 66.84817574 82.9375 80.2734375 C82.45152344 80.72299805 81.96554688 81.17255859 81.46484375 81.63574219 C80.46045289 82.57116488 79.47410916 83.52623411 78.50390625 84.49707031 C76.0076074 86.84910254 74.50811034 87.96778164 71.04296875 88.1875 C66.9112376 86.57511711 64.41163843 84.10869831 61.3125 81 C60.07653042 79.80749525 58.83822649 78.61740542 57.59765625 77.4296875 C56.6852417 76.55135254 56.6852417 76.55135254 55.75439453 75.65527344 C39.80059664 60.60284515 21.98865709 49.44318412 0 47 C0 31.49 0 15.98 0 0 Z " fill="#010101" transform="translate(164,160)"/>
<path d="M0 0 C1.33319778 0.33387509 2.66649058 0.66737181 4 1 C3.20596198 9.69262672 2.10630288 18.34291147 1 27 C-0.98 27 -2.96 27 -5 27 C-5.02578125 26.04738281 -5.0515625 25.09476562 -5.078125 24.11328125 C-5.13484375 22.85902344 -5.1915625 21.60476563 -5.25 20.3125 C-5.29640625 19.07113281 -5.3428125 17.82976562 -5.390625 16.55078125 C-6.08007158 12.53342905 -7.1190364 10.8336485 -10 8 C-16.2982267 5.9005911 -25.89006547 5.74844987 -32.1875 8.1875 C-35.37464335 10.24143683 -37.15083205 11.67149768 -39 15 C-39.68623534 18.84447753 -39.38766449 21.98238072 -38 25.625 C-32.08854411 32.64485388 -23.50692683 36.60073285 -15.50976562 40.76757812 C-7.05004517 45.28073153 2.44052738 50.58187388 6 60 C7.5163325 67.63178918 5.12491734 73.61891241 1 80 C-5.53715905 87.95059885 -14.00554237 91.44769475 -24 93 C-33.57967272 93.89570486 -42.09929144 92.74048182 -51 89 C-53 87 -53 87 -53.04345703 84.38623047 C-52.94919434 83.30744629 -52.85493164 82.22866211 -52.7578125 81.1171875 C-52.66113281 79.95058594 -52.56445312 78.78398437 -52.46484375 77.58203125 C-52.29662109 75.74705078 -52.29662109 75.74705078 -52.125 73.875 C-52.02058594 72.64394531 -51.91617188 71.41289062 -51.80859375 70.14453125 C-51.54859031 67.09540005 -51.2786515 64.04747439 -51 61 C-49.02 61 -47.04 61 -45 61 C-44.89042969 62.01320313 -44.78085938 63.02640625 -44.66796875 64.0703125 C-44.50840107 65.42194461 -44.34821167 66.77350343 -44.1875 68.125 C-44.11724609 68.79015625 -44.04699219 69.4553125 -43.97460938 70.140625 C-43.42308878 74.64103307 -42.37181267 78.13141235 -40 82 C-34.12215371 85.75181678 -27.81886936 85.81366534 -21 85 C-14.64409131 83.10160268 -10.68095307 80.52142961 -7 75 C-6.64656757 72.88769985 -6.64656757 72.88769985 -6.6875 70.625 C-6.67074219 69.87476563 -6.65398437 69.12453125 -6.63671875 68.3515625 C-7.24912616 64.38737687 -8.96594592 61.83467126 -12.06640625 59.33203125 C-12.89011719 58.83058594 -13.71382812 58.32914062 -14.5625 57.8125 C-15.53058594 57.21953125 -16.49867188 56.6265625 -17.49609375 56.015625 C-20.10452105 54.4900135 -22.74982475 53.04234311 -25.41015625 51.609375 C-44.78041787 41.17084402 -44.78041787 41.17084402 -50.0625 32.6875 C-51.89175609 25.49242604 -52.24067995 18.40344617 -48.375 11.83984375 C-36.76174849 -3.69947858 -17.39790347 -4.70120863 0 0 Z " fill="#070707" transform="translate(224,255)"/>
<path d="M0 0 C0.68128967 -0.00175232 1.36257935 -0.00350464 2.06451416 -0.00531006 C4.32688917 -0.00972789 6.58918663 -0.00679084 8.8515625 -0.00341797 C10.4171551 -0.00409103 11.9827476 -0.00506107 13.54833984 -0.00631714 C16.83366895 -0.00779402 20.11897092 -0.00563988 23.40429688 -0.00097656 C27.62476766 0.00472073 31.84517486 0.00144167 36.06564331 -0.00454903 C39.29972822 -0.00815491 42.53379795 -0.00701593 45.7678833 -0.00442123 C47.32448331 -0.00375204 48.88108468 -0.00458012 50.43768311 -0.00690079 C52.60953446 -0.00942777 54.78128146 -0.00558612 56.953125 0 C58.19143066 0.00079559 59.42973633 0.00159119 60.70556641 0.00241089 C63.4765625 0.12939453 63.4765625 0.12939453 64.4765625 1.12939453 C64.69161431 3.25004431 64.84733703 5.37678941 64.9765625 7.50439453 C65.37806845 13.72455018 65.88145155 19.92504628 66.4765625 26.12939453 C64.1665625 26.12939453 61.8565625 26.12939453 59.4765625 26.12939453 C59.30640625 25.30955078 59.13625 24.48970703 58.9609375 23.64501953 C58.71859375 22.56736328 58.47625 21.48970703 58.2265625 20.37939453 C57.99453125 19.31205078 57.7625 18.24470703 57.5234375 17.14501953 C56.35675411 13.78427483 55.26167025 12.30794524 52.4765625 10.12939453 C50.45401546 9.27100965 50.45401546 9.27100965 48.2890625 8.94189453 C47.59425781 8.80396484 46.89945312 8.66603516 46.18359375 8.52392578 C42.29474624 7.95715291 38.38245811 7.56338293 34.4765625 7.12939453 C34.4765625 32.86939453 34.4765625 58.60939453 34.4765625 85.12939453 C37.63901791 86.18354634 40.34604468 86.44215125 43.6640625 86.69189453 C45.29408203 86.81757813 45.29408203 86.81757813 46.95703125 86.94580078 C47.78847656 87.00638672 48.61992187 87.06697266 49.4765625 87.12939453 C49.1465625 89.10939453 48.8165625 91.08939453 48.4765625 93.12939453 C35.2765625 93.12939453 22.0765625 93.12939453 8.4765625 93.12939453 C8.4765625 91.14939453 8.4765625 89.16939453 8.4765625 87.12939453 C14.4165625 86.13939453 14.4165625 86.13939453 20.4765625 85.12939453 C21.45976916 81.19656789 21.63312278 78.01440008 21.68188477 73.97412109 C21.69178436 73.26152634 21.70168396 72.54893158 21.71188354 71.81474304 C21.74339389 69.46653532 21.76821441 67.11830738 21.79296875 64.77001953 C21.81354733 63.13905318 21.83454404 61.50809205 21.85594177 59.87713623 C21.91106915 55.58970376 21.96051949 51.3022239 22.00878906 47.01470947 C22.05907233 42.63753047 22.11472274 38.26042007 22.16992188 33.88330078 C22.27738925 25.29872341 22.37885946 16.71408856 22.4765625 8.12939453 C19.74511584 8.18962489 17.01897053 8.27671606 14.2890625 8.37939453 C13.13567383 8.40066406 13.13567383 8.40066406 11.95898438 8.42236328 C6.93916011 8.63780638 4.06914925 9.29764923 0.4765625 13.12939453 C-0.76019505 16.3642565 -0.76019505 16.3642565 -1.3359375 19.87939453 C-1.56925781 21.04986328 -1.80257812 22.22033203 -2.04296875 23.42626953 C-2.20152344 24.31830078 -2.36007813 25.21033203 -2.5234375 26.12939453 C-4.8334375 26.12939453 -7.1434375 26.12939453 -9.5234375 26.12939453 C-9.21828666 21.98298544 -8.90309239 17.83740135 -8.5859375 13.69189453 C-8.49892578 12.50789063 -8.41191406 11.32388672 -8.32226562 10.10400391 C-8.23525391 8.97929687 -8.14824219 7.85458984 -8.05859375 6.69580078 C-7.9800415 5.65367432 -7.90148926 4.61154785 -7.82055664 3.5378418 C-7.23016052 -1.24790818 -4.24813926 0.00272937 0 0 Z " fill="#0C0C0C" transform="translate(249.5234375,252.87060546875)"/>
<path d="M0 0 C1.98 0 3.96 0 6 0 C6.33 22.11 6.66 44.22 7 67 C9.31 67.99 11.62 68.98 14 70 C16.1796875 71.9375 16.1796875 71.9375 17.875 74 C18.44992187 74.680625 19.02484375 75.36125 19.6171875 76.0625 C23.13247531 80.98787501 22.54425872 87.22012574 22 93 C19.36463908 98.57480194 15.03815091 102.2277453 9.75 105.3125 C4.48091673 106.62977082 -0.42940974 107.12513374 -5.5078125 104.90234375 C-10.28451817 101.94646153 -14.4741765 98.60137839 -16 93 C-16.95606789 85.81110493 -16.93857473 79.55119525 -12.49609375 73.5859375 C-9.034844 69.91683202 -5.85139697 68.21284924 -1 67 C-0.67 44.89 -0.34 22.78 0 0 Z " fill="#050505" transform="translate(336,144)"/>
<path d="M0 0 C3.19952543 1.64883519 5.24786614 3.97436292 7.375 6.875 C8.75785693 11.57671357 8.57576982 14.93071319 6.25 19.25 C3.65595689 22.42049713 1.74255076 24.71099158 -2.40234375 25.3984375 C-11.35273973 25.31569116 -11.35273973 25.31569116 -15 22 C-18.22883266 17.21242054 -18.53256641 13.59194732 -18 8 C-16.70727212 4.93827606 -15.41968278 3.36881214 -12.9375 1.1875 C-8.58989614 -0.57004199 -4.61875724 -0.79812125 0 0 Z " fill="#FAFAFA" transform="translate(344,218)"/>
</svg>
